<?xml version="1.0" ?><svg id="Layer_1" style="enable-background:new 0 0 500 500;" version="1.1" viewBox="0 0 500 500" xml:space="preserve" xmlns="http://www.w3.org/2000/svg" xmlns:xlink="http://www.w3.org/1999/xlink"><style type="text/css">
	.st0{fill:#414242;}
	.st1{fill:url(#SVGID_1_);}
	.st2{fill:url(#SVGID_2_);}
</style><g><path class="st0" d="M319.6,70.01c-7.91,3.75-15.71,7.5-23.39,11.22L250,54.55L80.73,152.28v195.45l25.57,14.77l-20.06,13.14   l-26.92-15.54V139.91L250,29.82L319.6,70.01z"/><linearGradient gradientUnits="userSpaceOnUse" id="SVGID_1_" x1="399.2742" x2="61.9447" y1="16.3146" y2="486.875"><stop offset="0" style="stop-color:#00FFFF"/><stop offset="1" style="stop-color:#1B1464"/></linearGradient><path class="st1" d="M440.46,43.75l-32.78,61.14l-5.67-9.46c-7.36,3.18-14.58,6.4-21.69,9.63c-8.03,3.66-15.91,7.35-23.64,11.08   c-31.78,15.31-61.06,31.18-88.31,47.5c-22.26,13.33-43.18,26.95-63.01,40.82c52.21,7.75,143.61,18.9,143.08,64.29   c2.05,22.46-23.9,49.69-71.85,80.68l-91.97,58.26l-20.43,12.94l-45.81,29.01L86.12,402.2l21.61-14.16l20.06-13.14l144.69-94.77   c-58.65-10.87-137.21-11.01-144.95-65.39c-1.7-27.43,31.04-56.77,81.42-87.12c25.34-15.26,55.13-30.76,87.26-46.4   c7.67-3.73,15.48-7.47,23.39-11.22c16.97-8.03,34.41-16.11,52.05-24.18l-6.2-14.68L440.46,43.75z"/><linearGradient gradientUnits="userSpaceOnUse" id="SVGID_2_" x1="95.9937" x2="415.37" y1="432.8583" y2="1.9838"><stop offset="0" style="stop-color:#00FFFF"/><stop offset="1" style="stop-color:#1B1464"/></linearGradient><path class="st2" d="M96.81,404.33l35.17-23.03l160.62-105.2l-18.73-3.47c-10.37-1.92-21.52-3.54-32.3-5.1   c-25.4-3.68-51.66-7.48-71.75-15.67c-21.09-8.59-32.12-20.63-34.69-37.88c-0.53-10.7,5.87-22.92,19.03-36.35   c13.02-13.28,32.23-27.5,58.73-43.45c22.66-13.65,51.01-28.72,86.67-46.07c7.43-3.61,15.28-7.38,23.32-11.19   c15.12-7.16,31.63-14.83,51.95-24.14l6.74-3.09l-3.67-8.7l50.79,8.54l-21.38,39.89l-2.19-3.65l-6.15,2.66   c-7.26,3.14-14.6,6.4-21.82,9.69c-8.01,3.65-16.01,7.4-23.79,11.16c-30.74,14.81-60.66,30.9-88.92,47.83   c-21.57,12.91-42.92,26.74-63.47,41.12l-15.73,11l18.99,2.82c2.46,0.36,5,0.74,7.61,1.12c26.64,3.9,59.79,8.75,86.42,17.94   c13.92,4.8,24.58,10.33,31.68,16.44c7.39,6.36,10.94,13.27,10.84,21.15l0,0.39l0.04,0.39c1.16,12.65-9.77,35.67-68.36,73.54   l-91.94,58.25l-59.98,37.99L96.81,404.33z"/><path class="st0" d="M440.68,139.91v220.18L250,470.18l-64.15-37.03l-21.66-12.5l20.43-12.94l21.66,12.5L250,445.45l169.27-97.73   V152.28l-62.58-36.13c7.73-3.73,15.6-7.42,23.64-11.08L440.68,139.91z"/></g></svg>